<?xml version="1.0" encoding="iso-8859-1"?>
<!-- Generator: Adobe Illustrator 19.0.0, SVG Export Plug-In . SVG Version: 6.00 Build 0)  -->
<svg version="1.1" id="Layer_1" xmlns="http://www.w3.org/2000/svg" xmlns:xlink="http://www.w3.org/1999/xlink" x="0px" y="0px"
	 viewBox="0 0 512.001 512.001" style="enable-background:new 0 0 512.001 512.001;" xml:space="preserve">
<g>
	<path style="fill:#2D527C;" d="M382.135,466.591H34.789c-7.615,0-13.79-6.174-13.79-13.79c0-7.616,6.175-13.79,13.79-13.79h347.346
		c7.615,0,13.79,6.174,13.79,13.79C395.926,460.417,389.75,466.591,382.135,466.591z"/>
	<path style="fill:#2D527C;" d="M477.213,466.591h-30.681c-7.615,0-13.79-6.174-13.79-13.79c0-7.616,6.175-13.79,13.79-13.79h30.681
		c7.615,0,13.79,6.174,13.79,13.79C491.003,460.417,484.828,466.591,477.213,466.591z"/>
	<path style="fill:#2D527C;" d="M451.913,268.508h-30.628c-7.615,0-13.79-6.174-13.79-13.79s6.175-13.79,13.79-13.79h30.628
		c17.925,0,32.507-14.583,32.507-32.507s-14.582-32.507-32.507-32.507H37.54l-8.128,65.014h218.081c7.615,0,13.79,6.174,13.79,13.79
		c0,7.616-6.175,13.79-13.79,13.79H13.79c-3.955,0-7.721-1.698-10.339-4.664c-2.617-2.966-3.835-6.912-3.346-10.836l11.576-92.595
		c0.863-6.901,6.73-12.08,13.684-12.08h426.548c33.131,0,60.087,26.955,60.087,60.087S485.046,268.508,451.913,268.508z"/>
</g>
<polygon style="fill:#CEE8FA;" points="74.082,121.325 25.391,121.325 13.79,254.718 108.531,254.718 "/>
<path style="fill:#2D527C;" d="M108.531,268.508H13.79c-3.865,0-7.553-1.622-10.165-4.471s-3.908-6.663-3.573-10.514l11.6-133.392
	c0.619-7.125,6.583-12.596,13.738-12.596h48.691c6.288,0,11.78,4.253,13.353,10.343l34.45,133.392
	c1.066,4.13,0.161,8.521-2.449,11.893C116.822,266.534,112.797,268.508,108.531,268.508z M28.831,240.927h61.895l-27.326-105.81
	H38.034L28.831,240.927z"/>
<polygon style="fill:#CEE8FA;" points="362.503,162.124 228.489,59.201 167.028,59.201 252.306,162.124 "/>
<path style="fill:#2D527C;" d="M362.503,175.914H252.306c-4.107,0-8-1.83-10.619-4.992L156.41,68.001
	c-3.41-4.115-4.134-9.83-1.862-14.666c2.273-4.836,7.137-7.924,12.48-7.924h61.459c3.038,0,5.99,1.004,8.4,2.853l134.016,102.921
	c4.685,3.598,6.559,9.78,4.658,15.372C373.661,172.149,368.41,175.914,362.503,175.914z M258.789,148.333h63.117l-98.102-75.341
	h-27.44L258.789,148.333z"/>
<polygon style="fill:#CEE8FA;" points="190.96,361.147 129.499,361.147 243.927,223.045 370.784,223.045 "/>
<path style="fill:#2D527C;" d="M190.96,374.937h-61.461c-5.344,0-10.206-3.088-12.48-7.924c-2.274-4.836-1.549-10.551,1.862-14.666
	l114.428-138.103c2.619-3.161,6.513-4.992,10.619-4.992h126.857c5.906,0,11.158,3.762,13.058,9.355s0.028,11.776-4.658,15.372
	L199.36,372.084C196.949,373.935,193.998,374.937,190.96,374.937z M158.836,347.357h27.44l143.91-110.523h-79.777L158.836,347.357z"
	/>
<g>
</g>
<g>
</g>
<g>
</g>
<g>
</g>
<g>
</g>
<g>
</g>
<g>
</g>
<g>
</g>
<g>
</g>
<g>
</g>
<g>
</g>
<g>
</g>
<g>
</g>
<g>
</g>
<g>
</g>
</svg>
