<?xml version="1.0" encoding="iso-8859-1"?>
<!-- Generator: Adobe Illustrator 19.0.0, SVG Export Plug-In . SVG Version: 6.00 Build 0)  -->
<svg version="1.1" id="Capa_1" xmlns="http://www.w3.org/2000/svg" xmlns:xlink="http://www.w3.org/1999/xlink" x="0px" y="0px"
	 viewBox="0 0 430 430" style="enable-background:new 0 0 430 430;" xml:space="preserve">
<g id="XMLID_1680_">
	<path id="XMLID_1682_" style="fill:#78B9EB;" d="M85,270c15.601,0,29.345,7.941,37.417,20H170v-90h-70v-40h70v-30h-40h-30H60
		l-50,60v50h30v30H10v20h37.582C55.655,277.941,69.399,270,85,270z M69.866,160H70v40H40.718L69.866,160z"/>
	<path id="XMLID_1685_" style="fill:#5A8BB0;" d="M170,130v30v40v90h137.582c8.073-12.059,21.816-20,37.418-20
		c15.601,0,29.345,7.941,37.418,20H420v-20h-20l-10-30h30v-20l-90-20l-50-70h-40h-30H170z M264.561,160l28.571,40H200v-40H264.561z"
		/>
	<polygon id="XMLID_1688_" style="fill:#FFFFFF;" points="200,200 293.133,200 264.561,160 200,160 	"/>
	<path id="XMLID_1689_" style="fill:#565659;" d="M47.582,290H10H0v30h40.283c-0.182-1.643-0.283-3.309-0.283-5
		C40,305.748,42.795,297.15,47.582,290z"/>
	<path id="XMLID_1690_" style="fill:#565659;" d="M430,290h-10h-37.582c-8.073-12.059-21.816-20-37.418-20v22.5
		c12.427,0,22.5,10.073,22.5,22.5s-10.073,22.5-22.5,22.5V360c23.162,0,42.228-17.501,44.717-40H430V290z"/>
	<path id="XMLID_1691_" style="fill:#565659;" d="M307.582,290H170h-47.583c-8.073-12.059-21.816-20-37.417-20v22.5
		c12.427,0,22.5,10.073,22.5,22.5S97.427,337.5,85,337.5V360c23.162,0,42.228-17.501,44.717-40h170.566
		c-0.182-1.643-0.283-3.309-0.283-5C300,305.748,302.795,297.15,307.582,290z"/>
	<path id="XMLID_1692_" style="fill:#616064;" d="M62.5,315c0-12.427,10.073-22.5,22.5-22.5V270c-15.601,0-29.345,7.941-37.418,20
		C42.795,297.15,40,305.748,40,315c0,1.691,0.102,3.357,0.283,5c2.488,22.499,21.555,40,44.717,40v-22.5
		C72.573,337.5,62.5,327.427,62.5,315z"/>
	<path id="XMLID_1693_" style="fill:#CDCDD0;" d="M62.5,315c0,12.427,10.073,22.5,22.5,22.5v-45C72.573,292.5,62.5,302.573,62.5,315
		z"/>
	<path id="XMLID_1694_" style="fill:#ACABB1;" d="M85,337.5c12.427,0,22.5-10.073,22.5-22.5S97.427,292.5,85,292.5V337.5z"/>
	<path id="XMLID_1695_" style="fill:#616064;" d="M322.5,315c0-12.427,10.073-22.5,22.5-22.5V270c-15.601,0-29.345,7.941-37.418,20
		c-4.787,7.15-7.582,15.748-7.582,25c0,1.691,0.102,3.357,0.283,5c2.488,22.499,21.555,40,44.717,40v-22.5
		C332.573,337.5,322.5,327.427,322.5,315z"/>
	<path id="XMLID_1696_" style="fill:#CDCDD0;" d="M322.5,315c0,12.427,10.073,22.5,22.5,22.5v-45
		C332.573,292.5,322.5,302.573,322.5,315z"/>
	<path id="XMLID_1697_" style="fill:#ACABB1;" d="M345,337.5c12.427,0,22.5-10.073,22.5-22.5s-10.073-22.5-22.5-22.5V337.5z"/>
	<rect id="XMLID_1698_" x="10" y="240" style="fill:#FF5023;" width="30" height="30"/>
	<polygon id="XMLID_1699_" style="fill:#FF9811;" points="400,270 420,270 420,240 390,240 	"/>
	<polygon id="XMLID_1700_" style="fill:#FFFFFF;" points="70,160 69.866,160 40.718,200 70,200 	"/>
	<rect id="XMLID_1701_" x="100" y="160" style="fill:#FFFFFF;" width="70" height="40"/>
	<rect id="XMLID_1702_" x="240" y="70" style="fill:#BF3C1A;" width="30" height="40"/>
	<rect id="XMLID_1703_" x="170" y="70" style="fill:#BF3C1A;" width="40" height="40"/>
	<rect id="XMLID_1704_" x="130" y="70" style="fill:#FF5023;" width="40" height="40"/>
	<rect id="XMLID_1705_" x="70" y="70" style="fill:#FF5023;" width="30" height="40"/>
	<rect id="XMLID_1706_" x="100" y="70" style="fill:#FF9811;" width="30" height="40"/>
	<rect id="XMLID_1707_" x="210" y="70" style="fill:#FF9811;" width="30" height="40"/>
	<rect id="XMLID_1708_" x="100" y="110" style="fill:#565659;" width="30" height="20"/>
	<rect id="XMLID_1709_" x="210" y="110" style="fill:#565659;" width="30" height="20"/>
</g>
<g>
</g>
<g>
</g>
<g>
</g>
<g>
</g>
<g>
</g>
<g>
</g>
<g>
</g>
<g>
</g>
<g>
</g>
<g>
</g>
<g>
</g>
<g>
</g>
<g>
</g>
<g>
</g>
<g>
</g>
</svg>
