<?xml version="1.0" encoding="iso-8859-1"?>
<!-- Generator: Adobe Illustrator 19.0.0, SVG Export Plug-In . SVG Version: 6.00 Build 0)  -->
<svg version="1.1" id="Capa_1" xmlns="http://www.w3.org/2000/svg" xmlns:xlink="http://www.w3.org/1999/xlink" x="0px" y="0px"
	 viewBox="0 0 372.277 372.277" style="enable-background:new 0 0 372.277 372.277;" xml:space="preserve">
<g id="XMLID_4_">
	<path id="XMLID_2319_" style="fill:#AED5F3;" d="M83.334,116.138H15c-8.284,0-15,6.716-15,15c0,8.284,6.716,15,15,15h30
		c-8.284,0-15,6.716-15,15c0,8.284,6.716,15,15,15h5L83.334,116.138z"/>
	<path id="XMLID_2320_" style="fill:#64C37D;" d="M260,86.139l9.825,17.685c8.843-22.332,24.513-61.901,25.076-63.325
		c-2.791-3.572-6.26-7.017-10.568-10.167c-46.927-34.311-90.144,4.371-90.144,4.371c25.068-0.276,42.009,6.51,53.427,15.32
		c-9.428-0.748-20.257-0.112-32.118,3.124c-21.956,5.993-36.545,18.734-46.248,32.992H180H260z"/>
	<path id="XMLID_2321_" style="fill:#4B925E;" d="M322.846,79.815c14.355,1.393,31.35,8.046,49.432,25.41
		c0,0-5.018-57.782-62.713-64.901c-5.297-0.653-10.183-0.519-14.663,0.175c-0.564,1.424-16.233,40.993-25.076,63.325l1.865,3.358
		c3.966-1.362,8.415-1.382,12.62,0.283c9.359,3.705,13.943,14.299,10.237,23.659c-0.444,1.121-0.992,2.17-1.62,3.148
		c17.656,13.994,36.383,39.442,33.924,83.859c0,0,52.576-56.492,17.267-114.052C337.69,93.6,330.23,85.723,322.846,79.815z"/>
	<path id="XMLID_2322_" style="fill:#50412E;" d="M284.31,107.466c-4.205-1.665-8.654-1.646-12.62-0.283l17.42,31.356
		c1.468-1.194,2.763-2.623,3.817-4.266c0.628-0.979,1.176-2.027,1.62-3.148C298.254,121.764,293.67,111.171,284.31,107.466z"/>
	<polygon id="XMLID_2323_" style="fill:#78B9EB;" points="290,326.139 250,326.139 250,326.138 200,326.138 200,326.139 
		160,326.139 160,326.138 110,326.138 110,326.139 70,326.139 70,326.138 20,326.138 20,356.138 340,356.138 340,326.138 
		290,326.138 	"/>
	<path id="XMLID_2324_" style="fill:#A0815C;" d="M160,206.138h20v-29.999H70v89.999h90V206.138z M130,236.138h-30v-30h30V236.138z"
		/>
	<polygon id="XMLID_13_" style="fill:#FFC170;" points="160,266.138 70,266.138 50,266.138 50,296.138 310,296.138 310,266.138 
		290,266.138 200,266.138 	"/>
	<path id="XMLID_2327_" style="fill:#786145;" d="M180,206.138h20v60h90v-89.999H180V206.138z M230,206.138h30v30h-30V206.138z"/>
	<polygon id="XMLID_2330_" style="fill:#786145;" points="110,326.139 110,326.138 110,296.139 70,296.139 70,326.138 70,326.139 	
		"/>
	<polygon id="XMLID_2331_" style="fill:#786145;" points="200,326.139 200,326.138 200,296.139 160,296.139 160,326.138 
		160,326.139 	"/>
	<polygon id="XMLID_2332_" style="fill:#786145;" points="290,326.139 290,326.138 290,296.139 250,296.139 250,326.138 
		250,326.139 	"/>
	<polygon id="XMLID_2333_" style="fill:#FFD6A0;" points="180,176.138 180,86.139 169.25,86.139 100,86.139 83.334,116.138 
		50,176.138 50,176.139 70,176.139 180,176.139 	"/>
	<polygon id="XMLID_2334_" style="fill:#FFC170;" points="271.69,107.182 269.825,103.824 260,86.139 180,86.139 180,176.138 
		180,176.139 290,176.139 310,176.139 289.11,138.539 	"/>
	<polygon id="XMLID_2335_" style="fill:#50412E;" points="160,266.138 200,266.138 200,206.138 180,206.138 160,206.138 	"/>
	<rect id="XMLID_2336_" x="100" y="206.138" style="fill:#50412E;" width="30" height="30"/>
	<rect id="XMLID_2337_" x="230" y="206.138" style="fill:#50412E;" width="30" height="30"/>
</g>
<g>
</g>
<g>
</g>
<g>
</g>
<g>
</g>
<g>
</g>
<g>
</g>
<g>
</g>
<g>
</g>
<g>
</g>
<g>
</g>
<g>
</g>
<g>
</g>
<g>
</g>
<g>
</g>
<g>
</g>
</svg>
