<?xml version="1.0" encoding="iso-8859-1"?>
<!-- Generator: Adobe Illustrator 19.0.0, SVG Export Plug-In . SVG Version: 6.00 Build 0)  -->
<svg version="1.1" id="Layer_1" xmlns="http://www.w3.org/2000/svg" xmlns:xlink="http://www.w3.org/1999/xlink" x="0px" y="0px"
	 viewBox="0 0 504 504" style="enable-background:new 0 0 504 504;" xml:space="preserve">
<circle style="fill:#FFD05B;" cx="252" cy="252" r="252"/>
<path style="fill:#324A5E;" d="M210.2,151.8V131h83.5v20.8h15.8V127c0-6.5-5.3-11.8-11.8-11.8h-91.4c-6.5,0-11.8,5.3-11.8,11.8v24.8
	H210.2z"/>
<path style="fill:#FF7058;" d="M388.7,151.3H115.3c-6.2,0-11.3,5.1-11.3,11.3v200c0,6.2,5.1,11.3,11.3,11.3h273.4
	c6.2,0,11.3-5.1,11.3-11.3v-200C400,156.4,394.9,151.3,388.7,151.3z"/>
<g>
	<rect x="150.6" y="151.3" style="fill:#324A5E;" width="17.9" height="222.6"/>
	<rect x="335.5" y="151.3" style="fill:#324A5E;" width="17.9" height="222.6"/>
</g>
<g>
</g>
<g>
</g>
<g>
</g>
<g>
</g>
<g>
</g>
<g>
</g>
<g>
</g>
<g>
</g>
<g>
</g>
<g>
</g>
<g>
</g>
<g>
</g>
<g>
</g>
<g>
</g>
<g>
</g>
</svg>
