<?xml version="1.0" encoding="iso-8859-1"?>
<!-- Generator: Adobe Illustrator 19.0.0, SVG Export Plug-In . SVG Version: 6.00 Build 0)  -->
<svg version="1.1" id="Layer_1" xmlns="http://www.w3.org/2000/svg" xmlns:xlink="http://www.w3.org/1999/xlink" x="0px" y="0px"
	 viewBox="0 0 512 512" style="enable-background:new 0 0 512 512;" xml:space="preserve">
<path style="fill:#B29A7E;" d="M194.313,157.301V95.614h123.374v61.687h37.012V77.108c0-10.22-8.286-18.506-18.506-18.506H175.807
	c-10.22,0-18.506,8.286-18.506,18.506v80.193H194.313z"/>
<path style="fill:#BFA993;" d="M465.735,453.398H46.265c-20.357,0-37.012-16.655-37.012-37.012v-234.41
	c0-20.357,16.655-37.012,37.012-37.012h419.47c20.357,0,37.012,16.655,37.012,37.012v234.41
	C502.747,436.742,486.092,453.398,465.735,453.398z"/>
<path style="fill:#B29A7E;" d="M465.735,144.964h-49.349c20.357,0,37.012,16.655,37.012,37.012v234.41
	c0,20.357-16.655,37.012-37.012,37.012h49.349c20.357,0,37.012-16.655,37.012-37.012v-234.41
	C502.747,161.619,486.092,144.964,465.735,144.964z"/>
<rect x="379.374" y="144.964" style="fill:#88888F;" width="49.349" height="308.434"/>
<rect x="404.048" y="144.964" style="fill:#797781;" width="24.675" height="308.434"/>
<circle style="fill:#B4D8F1;" cx="305.349" cy="379.374" r="37.012"/>
<rect x="46.275" y="228.407" transform="matrix(-0.9799 -0.1996 0.1996 -0.9799 197.4185 550.741)" style="fill:#95D5A7;" width="160.389" height="74.026"/>
<path style="fill:#E07188;" d="M280.665,228.242c-4.321,0-8.183-3.041-9.064-7.441c-1.002-5.011,2.248-9.886,7.259-10.888
	l61.687-12.337c5.01-1.003,9.886,2.248,10.888,7.259c1.002,5.011-2.248,9.886-7.259,10.888l-61.687,12.337
	C281.878,228.184,281.266,228.242,280.665,228.242z"/>
<rect x="83.277" y="144.964" style="fill:#88888F;" width="49.349" height="308.434"/>
<rect x="107.952" y="144.964" style="fill:#797781;" width="24.675" height="308.434"/>
<g>
	<path style="fill:#2E2D31;" d="M502.747,222.072c-5.11,0-9.253,4.143-9.253,9.253v185.06c0,15.307-12.452,27.759-27.759,27.759
		h-27.759V154.217h27.759c15.307,0,27.759,12.452,27.759,27.759c0,5.11,4.143,9.253,9.253,9.253c5.11,0,9.253-4.143,9.253-9.253
		c0-25.511-20.754-46.265-46.265-46.265H363.952V77.108c0-15.307-12.452-27.759-27.759-27.759H175.807
		c-15.307,0-27.759,12.452-27.759,27.759v18.506c0,5.11,4.143,9.253,9.253,9.253s9.253-4.143,9.253-9.253V77.108
		c0-5.103,4.15-9.253,9.253-9.253h160.386c5.103,0,9.253,4.15,9.253,9.253v58.602H326.94V95.614c0-5.11-4.143-9.253-9.253-9.253
		H194.313c-5.11,0-9.253,4.143-9.253,9.253v40.096H46.265C20.754,135.711,0,156.465,0,181.976v234.41
		c0,25.511,20.754,46.265,46.265,46.265h419.47c25.511,0,46.265-20.754,46.265-46.265v-185.06
		C512,226.215,507.857,222.072,502.747,222.072z M203.566,104.867h104.867v30.843H203.566V104.867z M194.313,154.217h123.374h37.012
		h15.422v289.928H141.88V315.77l53.922,10.984c0.613,0.125,1.231,0.186,1.847,0.186c1.801,0,3.579-0.527,5.105-1.536
		c2.047-1.355,3.472-3.466,3.962-5.87L221.491,247c1.02-5.008-2.213-9.895-7.22-10.914l-72.392-14.748v-67.121h15.422H194.313z
		 M141.88,240.224l59.631,12.147l-11.081,54.4l-48.55-9.888V240.224z M74.024,283.06l-22.619-4.608l11.081-54.4l11.538,2.35V283.06z
		 M18.506,416.386v-234.41c0-15.307,12.452-27.759,27.759-27.759h27.759v53.299l-16.911-3.445c-2.403-0.49-4.905-0.005-6.952,1.35
		c-2.047,1.355-3.472,3.466-3.962,5.87l-14.776,72.535c-1.02,5.008,2.212,9.895,7.22,10.914l35.381,7.208v142.198H46.265
		C30.958,444.145,18.506,431.693,18.506,416.386z M92.53,444.145V154.217h30.843v289.928H92.53z M388.627,444.145V154.217h30.843
		v289.928H388.627z"/>
	<path style="fill:#2E2D31;" d="M305.349,425.639c25.511,0,46.265-20.754,46.265-46.265c0-25.511-20.754-46.265-46.265-46.265
		c-25.511,0-46.265,20.754-46.265,46.265C259.084,404.885,279.838,425.639,305.349,425.639z M305.349,351.614
		c15.307,0,27.759,12.452,27.759,27.759s-12.452,27.759-27.759,27.759c-15.307,0-27.759-12.452-27.759-27.759
		S290.042,351.614,305.349,351.614z"/>
</g>
<g>
</g>
<g>
</g>
<g>
</g>
<g>
</g>
<g>
</g>
<g>
</g>
<g>
</g>
<g>
</g>
<g>
</g>
<g>
</g>
<g>
</g>
<g>
</g>
<g>
</g>
<g>
</g>
<g>
</g>
</svg>
