<?xml version="1.0" encoding="iso-8859-1"?>
<!-- Generator: Adobe Illustrator 16.0.0, SVG Export Plug-In . SVG Version: 6.00 Build 0)  -->
<!DOCTYPE svg PUBLIC "-//W3C//DTD SVG 1.1//EN" "http://www.w3.org/Graphics/SVG/1.1/DTD/svg11.dtd">
<svg version="1.1" id="Capa_1" xmlns="http://www.w3.org/2000/svg" xmlns:xlink="http://www.w3.org/1999/xlink" x="0px" y="0px"
	 width="60.731px" height="60.731px" viewBox="0 0 60.731 60.731" style="enable-background:new 0 0 60.731 60.731;"
	 xml:space="preserve">
<g>
	<g>
		<g>
			<path d="M51.726,36.132H37.761c-3.463,0-6.288-2.819-6.288-6.288V6.29c0-3.469,2.825-6.29,6.288-6.29h13.965
				c3.467,0,6.291,2.821,6.291,6.29v23.552C58.017,33.312,55.192,36.132,51.726,36.132z M37.756,2.233
				c-2.235,0-4.056,1.819-4.056,4.059v23.552c0,2.237,1.82,4.061,4.056,4.061h13.97c2.235,0,4.051-1.82,4.051-4.061V6.29
				c0-2.238-1.815-4.059-4.051-4.059h-13.97V2.233z"/>
		</g>
		<g>
			<path d="M37.92,35.461c-3.472,0-5.88-2.249-5.88-5.717v-8.614H13.402v23.383h17.591l8.126,9.115v-9.115h5.606v-9.296
				L37.92,35.461z"/>
		</g>
		<g>
			<polygon points="28.768,46.743 11.172,46.743 11.172,32.906 2.714,32.906 2.714,52.925 7.524,52.925 7.524,60.731 14.48,52.925 
				29.539,52.925 29.539,47.61 			"/>
		</g>
		<g>
			<g>
				<path d="M46.447,10.828v11.159c0,0.483,0.022,0.771,0.063,0.867c0.06,0.17,0.169,0.292,0.324,0.361
					c0.155,0.072,0.442,0.107,0.866,0.107h1.429v1.979h-8.778v-1.979h1.446c0.512,0,0.831-0.032,0.981-0.096
					c0.142-0.063,0.241-0.17,0.319-0.315c0.072-0.145,0.104-0.453,0.104-0.923v-7.958h-2.852v-1.978
					c0.812-0.083,1.438-0.167,1.875-0.256c0.652-0.127,1.347-0.303,2.081-0.529c0.41-0.125,0.789-0.27,1.145-0.44H46.447z"/>
			</g>
		</g>
	</g>
</g>
<g>
</g>
<g>
</g>
<g>
</g>
<g>
</g>
<g>
</g>
<g>
</g>
<g>
</g>
<g>
</g>
<g>
</g>
<g>
</g>
<g>
</g>
<g>
</g>
<g>
</g>
<g>
</g>
<g>
</g>
</svg>
